<mxfile host="Electron" agent="Mozilla/5.0 (Macintosh; Intel Mac OS X 10_15_7) AppleWebKit/537.36 (KHTML, like Gecko) draw.io/26.0.4 Chrome/128.0.6613.186 Electron/32.2.5 Safari/537.36" version="26.0.4">
  <diagram name="Pagina-1" id="7XpyLbtJi4zl0HCKEVlX">
    <mxGraphModel dx="2879" dy="2535" grid="1" gridSize="10" guides="1" tooltips="1" connect="1" arrows="1" fold="1" page="1" pageScale="1" pageWidth="827" pageHeight="1169" math="1" shadow="0">
      <root>
        <mxCell id="0" />
        <mxCell id="1" parent="0" />
        <mxCell id="FZtMLzsmXkgukoDw3E-y-62" style="edgeStyle=orthogonalEdgeStyle;rounded=0;orthogonalLoop=1;jettySize=auto;html=1;exitX=0;exitY=0.5;exitDx=0;exitDy=0;entryX=1;entryY=0.5;entryDx=0;entryDy=0;strokeWidth=4;" edge="1" parent="1" source="Id2394FtnwDAoE4dz5dc-86">
          <mxGeometry relative="1" as="geometry">
            <mxPoint x="-330" y="150" as="targetPoint" />
          </mxGeometry>
        </mxCell>
        <mxCell id="FZtMLzsmXkgukoDw3E-y-64" style="edgeStyle=orthogonalEdgeStyle;rounded=0;orthogonalLoop=1;jettySize=auto;html=1;exitX=1;exitY=0.5;exitDx=0;exitDy=0;entryX=0;entryY=0.5;entryDx=0;entryDy=0;jumpStyle=none;strokeWidth=3;" edge="1" parent="1" source="FZtMLzsmXkgukoDw3E-y-25" target="Id2394FtnwDAoE4dz5dc-20">
          <mxGeometry relative="1" as="geometry" />
        </mxCell>
        <mxCell id="FZtMLzsmXkgukoDw3E-y-25" value="&lt;span style=&quot;font-size: 24px;&quot;&gt;`f_theta`&lt;/span&gt;" style="triangle;whiteSpace=wrap;html=1;align=center;fillColor=#67AB9F;fontColor=#000000;strokeColor=#487870;" vertex="1" parent="1">
          <mxGeometry x="140" y="350" width="105" height="110" as="geometry" />
        </mxCell>
        <mxCell id="FZtMLzsmXkgukoDw3E-y-66" style="edgeStyle=orthogonalEdgeStyle;rounded=0;orthogonalLoop=1;jettySize=auto;html=1;exitX=0;exitY=0.5;exitDx=0;exitDy=0;entryX=0;entryY=0.5;entryDx=0;entryDy=0;strokeWidth=3;" edge="1" parent="1" source="FZtMLzsmXkgukoDw3E-y-28" target="FZtMLzsmXkgukoDw3E-y-36">
          <mxGeometry relative="1" as="geometry" />
        </mxCell>
        <mxCell id="FZtMLzsmXkgukoDw3E-y-28" value="&lt;span style=&quot;font-size: 24px;&quot;&gt;`g_varphi`&lt;/span&gt;" style="triangle;whiteSpace=wrap;html=1;align=center;direction=west;fillColor=#67AB9F;fontColor=#000000;strokeColor=#487870;" vertex="1" parent="1">
          <mxGeometry x="520" y="350" width="105" height="110" as="geometry" />
        </mxCell>
        <mxCell id="FZtMLzsmXkgukoDw3E-y-63" style="edgeStyle=orthogonalEdgeStyle;rounded=0;orthogonalLoop=1;jettySize=auto;html=1;exitX=1;exitY=0.5;exitDx=0;exitDy=0;entryX=0;entryY=0.5;entryDx=0;entryDy=0;strokeWidth=3;" edge="1" parent="1" source="Id2394FtnwDAoE4dz5dc-89" target="FZtMLzsmXkgukoDw3E-y-25">
          <mxGeometry relative="1" as="geometry" />
        </mxCell>
        <mxCell id="FZtMLzsmXkgukoDw3E-y-65" style="edgeStyle=orthogonalEdgeStyle;rounded=0;orthogonalLoop=1;jettySize=auto;html=1;exitX=1;exitY=0.5;exitDx=0;exitDy=0;entryX=1;entryY=0.5;entryDx=0;entryDy=0;strokeWidth=3;" edge="1" parent="1" source="Id2394FtnwDAoE4dz5dc-20" target="FZtMLzsmXkgukoDw3E-y-28">
          <mxGeometry relative="1" as="geometry" />
        </mxCell>
        <mxCell id="Id2394FtnwDAoE4dz5dc-20" value="" style="rounded=1;whiteSpace=wrap;html=1;fillColor=#dae8fc;strokeColor=#6c8ebf;strokeWidth=4;" parent="1" vertex="1">
          <mxGeometry x="325" y="285" width="120" height="240" as="geometry" />
        </mxCell>
        <mxCell id="Id2394FtnwDAoE4dz5dc-25" value="&lt;span style=&quot;color: rgb(0, 0, 0); font-size: 20px;&quot;&gt;`V_{789}`&lt;/span&gt;" style="rounded=1;whiteSpace=wrap;html=1;fillColor=#1ba1e2;strokeColor=#006EAF;fontColor=#ffffff;" parent="1" vertex="1">
          <mxGeometry x="340" y="460" width="90" height="60" as="geometry" />
        </mxCell>
        <mxCell id="Id2394FtnwDAoE4dz5dc-24" value="&lt;span style=&quot;color: rgb(0, 0, 0); font-size: 20px;&quot;&gt;`V_{456}`&lt;/span&gt;" style="rounded=1;whiteSpace=wrap;html=1;fillColor=#60a917;strokeColor=#2D7600;fontColor=#ffffff;" parent="1" vertex="1">
          <mxGeometry x="340" y="375" width="90" height="60" as="geometry" />
        </mxCell>
        <mxCell id="Id2394FtnwDAoE4dz5dc-23" value="&lt;span style=&quot;color: rgb(0, 0, 0); font-size: 20px;&quot;&gt;`V_{123}`&lt;/span&gt;" style="rounded=1;whiteSpace=wrap;html=1;fillColor=#d80073;strokeColor=#A50040;fontColor=#ffffff;" parent="1" vertex="1">
          <mxGeometry x="340" y="290" width="90" height="60" as="geometry" />
        </mxCell>
        <mxCell id="FZtMLzsmXkgukoDw3E-y-67" value="" style="group" vertex="1" connectable="0" parent="1">
          <mxGeometry x="722" y="290" width="105" height="235" as="geometry" />
        </mxCell>
        <mxCell id="FZtMLzsmXkgukoDw3E-y-36" value="" style="rounded=1;whiteSpace=wrap;html=1;fillColor=#dae8fc;strokeColor=#6c8ebf;strokeWidth=4;arcSize=18;" vertex="1" parent="FZtMLzsmXkgukoDw3E-y-67">
          <mxGeometry x="-15" y="-5" width="120" height="240" as="geometry" />
        </mxCell>
        <mxCell id="FZtMLzsmXkgukoDw3E-y-68" value="" style="group" vertex="1" connectable="0" parent="FZtMLzsmXkgukoDw3E-y-67">
          <mxGeometry width="90" height="230" as="geometry" />
        </mxCell>
        <mxCell id="FZtMLzsmXkgukoDw3E-y-33" value="&lt;span style=&quot;color: rgb(0, 0, 0); font-size: 20px;&quot;&gt;`Doc_{789}`&lt;/span&gt;" style="rounded=1;whiteSpace=wrap;html=1;fillColor=#1ba1e2;strokeColor=#006EAF;fontColor=#ffffff;" vertex="1" parent="FZtMLzsmXkgukoDw3E-y-68">
          <mxGeometry y="170" width="90" height="60" as="geometry" />
        </mxCell>
        <mxCell id="FZtMLzsmXkgukoDw3E-y-34" value="&lt;span style=&quot;color: rgb(0, 0, 0); font-size: 20px;&quot;&gt;`Doc_{456}`&lt;/span&gt;" style="rounded=1;whiteSpace=wrap;html=1;fillColor=#60a917;strokeColor=#2D7600;fontColor=#ffffff;" vertex="1" parent="FZtMLzsmXkgukoDw3E-y-68">
          <mxGeometry y="85" width="90" height="60" as="geometry" />
        </mxCell>
        <mxCell id="FZtMLzsmXkgukoDw3E-y-35" value="&lt;span style=&quot;color: rgb(0, 0, 0); font-size: 20px;&quot;&gt;`Doc_{123}`&lt;/span&gt;" style="rounded=1;whiteSpace=wrap;html=1;fillColor=#d80073;strokeColor=#A50040;fontColor=#ffffff;" vertex="1" parent="FZtMLzsmXkgukoDw3E-y-68">
          <mxGeometry width="90" height="60" as="geometry" />
        </mxCell>
        <mxCell id="FZtMLzsmXkgukoDw3E-y-76" value="" style="group" vertex="1" connectable="0" parent="1">
          <mxGeometry x="-525" width="190" height="300" as="geometry" />
        </mxCell>
        <mxCell id="FZtMLzsmXkgukoDw3E-y-69" value="" style="shape=cylinder3;whiteSpace=wrap;html=1;boundedLbl=1;backgroundOutline=1;size=15;fillColor=#fff2cc;strokeColor=#d6b656;strokeWidth=4;" vertex="1" parent="FZtMLzsmXkgukoDw3E-y-76">
          <mxGeometry width="190" height="300" as="geometry" />
        </mxCell>
        <mxCell id="FZtMLzsmXkgukoDw3E-y-75" value="" style="group" vertex="1" connectable="0" parent="FZtMLzsmXkgukoDw3E-y-76">
          <mxGeometry x="15" y="30" width="160" height="255" as="geometry" />
        </mxCell>
        <mxCell id="FZtMLzsmXkgukoDw3E-y-70" value="&lt;b&gt;&lt;font style=&quot;font-size: 15px;&quot;&gt;Augmentation&lt;/font&gt;&lt;/b&gt;" style="text;html=1;align=center;verticalAlign=middle;whiteSpace=wrap;rounded=0;" vertex="1" parent="FZtMLzsmXkgukoDw3E-y-75">
          <mxGeometry x="25" width="110" height="30" as="geometry" />
        </mxCell>
        <mxCell id="FZtMLzsmXkgukoDw3E-y-74" value="" style="group" vertex="1" connectable="0" parent="FZtMLzsmXkgukoDw3E-y-75">
          <mxGeometry y="40" width="160" height="215" as="geometry" />
        </mxCell>
        <mxCell id="FZtMLzsmXkgukoDw3E-y-71" value="Num2Word" style="rounded=1;whiteSpace=wrap;html=1;fillColor=#cce5ff;strokeColor=#36393d;" vertex="1" parent="FZtMLzsmXkgukoDw3E-y-74">
          <mxGeometry width="160" height="60" as="geometry" />
        </mxCell>
        <mxCell id="FZtMLzsmXkgukoDw3E-y-72" value="POS-MLM" style="rounded=1;whiteSpace=wrap;html=1;fillColor=#ffcc99;strokeColor=#36393d;" vertex="1" parent="FZtMLzsmXkgukoDw3E-y-74">
          <mxGeometry y="75" width="160" height="60" as="geometry" />
        </mxCell>
        <mxCell id="FZtMLzsmXkgukoDw3E-y-73" value="POS-MLM" style="rounded=1;whiteSpace=wrap;html=1;fillColor=#cdeb8b;strokeColor=#36393d;" vertex="1" parent="FZtMLzsmXkgukoDw3E-y-74">
          <mxGeometry y="155" width="160" height="60" as="geometry" />
        </mxCell>
        <mxCell id="FZtMLzsmXkgukoDw3E-y-77" style="edgeStyle=orthogonalEdgeStyle;rounded=0;orthogonalLoop=1;jettySize=auto;html=1;exitX=0.5;exitY=1;exitDx=0;exitDy=0;exitPerimeter=0;strokeWidth=3;" edge="1" parent="1" source="FZtMLzsmXkgukoDw3E-y-69" target="Id2394FtnwDAoE4dz5dc-89">
          <mxGeometry relative="1" as="geometry" />
        </mxCell>
        <mxCell id="Id2394FtnwDAoE4dz5dc-86" value="" style="rounded=1;whiteSpace=wrap;html=1;arcSize=6;fillColor=#ffe6cc;strokeColor=#d79b00;strokeWidth=4;" parent="1" vertex="1">
          <mxGeometry x="-173" width="1000" height="160" as="geometry" />
        </mxCell>
        <mxCell id="Id2394FtnwDAoE4dz5dc-81" value="Doc 456 (Good Document)" style="swimlane;whiteSpace=wrap;html=1;fillColor=#60a917;strokeColor=#2D7600;fontColor=#ffffff;" parent="1" vertex="1">
          <mxGeometry x="155.75" y="40" width="311.25" height="100" as="geometry">
            <mxRectangle x="-280" y="200" width="100" height="30" as="alternateBounds" />
          </mxGeometry>
        </mxCell>
        <mxCell id="Id2394FtnwDAoE4dz5dc-82" value="… As part of her research … Sarah Waters came across&#xa;the title of her first book, Tipping the Velvet. …" style="text;align=center;verticalAlign=middle;resizable=1;points=[];autosize=1;strokeColor=none;fillColor=none;movable=1;rotatable=1;deletable=1;editable=1;locked=0;connectable=1;" parent="Id2394FtnwDAoE4dz5dc-81" vertex="1">
          <mxGeometry y="26.75" width="306.25" height="68.5" as="geometry" />
        </mxCell>
        <mxCell id="Id2394FtnwDAoE4dz5dc-87" value="&lt;b&gt;&lt;font style=&quot;font-size: 17px;&quot;&gt;ORIGINAL DATASET&lt;/font&gt;&lt;/b&gt;" style="text;html=1;align=center;verticalAlign=middle;whiteSpace=wrap;rounded=0;" parent="1" vertex="1">
          <mxGeometry x="242" width="170" height="30" as="geometry" />
        </mxCell>
        <mxCell id="FZtMLzsmXkgukoDw3E-y-47" value="Doc 789 (Bad Document)" style="swimlane;whiteSpace=wrap;html=1;fillColor=#1ba1e2;strokeColor=#006EAF;fontColor=#ffffff;" vertex="1" parent="1">
          <mxGeometry x="487" y="40" width="320" height="100" as="geometry">
            <mxRectangle x="-280" y="200" width="100" height="30" as="alternateBounds" />
          </mxGeometry>
        </mxCell>
        <mxCell id="FZtMLzsmXkgukoDw3E-y-50" value="&lt;div&gt;…. Keeley Hawes is known for her roleas Kitty Butler in&lt;/div&gt;&lt;div&gt;Tipping the Velvet, …&lt;/div&gt;" style="text;html=1;align=center;verticalAlign=middle;resizable=0;points=[];autosize=1;strokeColor=none;fillColor=none;" vertex="1" parent="FZtMLzsmXkgukoDw3E-y-47">
          <mxGeometry y="41" width="320" height="40" as="geometry" />
        </mxCell>
        <mxCell id="FZtMLzsmXkgukoDw3E-y-78" value="&lt;div&gt;&lt;font style=&quot;font-size: 13px;&quot;&gt;Query 123&lt;/font&gt;&lt;/div&gt;&lt;div&gt;&lt;br&gt;&lt;/div&gt;Who is the author of tipping the velvet" style="shape=callout;whiteSpace=wrap;html=1;perimeter=calloutPerimeter;base=15;size=30;position=0.66;position2=0.62;fillColor=#d80073;fontColor=#ffffff;strokeColor=#A50040;verticalAlign=middle;labelPosition=center;verticalLabelPosition=middle;align=center;" vertex="1" parent="1">
          <mxGeometry x="-150" y="40" width="290" height="100" as="geometry" />
        </mxCell>
        <mxCell id="Id2394FtnwDAoE4dz5dc-89" value="" style="rounded=1;whiteSpace=wrap;html=1;arcSize=4;fillColor=#e1d5e7;strokeColor=#9673a6;strokeWidth=3;container=1;" parent="1" vertex="1">
          <mxGeometry x="-310" y="180" width="360" height="450" as="geometry" />
        </mxCell>
        <mxCell id="FZtMLzsmXkgukoDw3E-y-79" value="&lt;div&gt;&lt;font style=&quot;font-size: 13px;&quot;&gt;Query 123&lt;/font&gt;&lt;/div&gt;&lt;div&gt;&lt;br&gt;&lt;/div&gt;Who is the author of tipping the velvet" style="shape=callout;whiteSpace=wrap;html=1;perimeter=calloutPerimeter;base=15;size=30;position=0.66;position2=0.62;fillColor=#d80073;fontColor=#ffffff;strokeColor=#A50040;verticalAlign=middle;labelPosition=center;verticalLabelPosition=middle;align=center;" vertex="1" parent="Id2394FtnwDAoE4dz5dc-89">
          <mxGeometry x="33.94999999999999" y="60" width="290" height="100" as="geometry" />
        </mxCell>
        <mxCell id="FZtMLzsmXkgukoDw3E-y-56" value="" style="group" vertex="1" connectable="0" parent="1">
          <mxGeometry x="-291.05263157894734" y="190" width="322.1052631578948" height="420" as="geometry" />
        </mxCell>
        <mxCell id="Id2394FtnwDAoE4dz5dc-6" value="Doc 456 (Good Document)" style="swimlane;whiteSpace=wrap;html=1;fillColor=#60a917;strokeColor=#2D7600;glass=0;fontColor=#ffffff;" parent="FZtMLzsmXkgukoDw3E-y-56" vertex="1">
          <mxGeometry x="0.5326315789473028" y="180" width="321.05" height="100" as="geometry">
            <mxRectangle x="-280" y="200" width="100" height="30" as="alternateBounds" />
          </mxGeometry>
        </mxCell>
        <mxCell id="Id2394FtnwDAoE4dz5dc-7" value="&lt;div&gt;… As part of her research … Sarah Waters came across&lt;/div&gt;&lt;div&gt;the title of her first book, Tipping the Velvet. …&lt;/div&gt;" style="text;html=1;align=center;verticalAlign=middle;resizable=0;points=[];autosize=1;strokeColor=none;fillColor=none;" parent="Id2394FtnwDAoE4dz5dc-6" vertex="1">
          <mxGeometry x="0.0036842105263161784" y="40" width="320" height="40" as="geometry" />
        </mxCell>
        <mxCell id="Id2394FtnwDAoE4dz5dc-15" value="Doc 789 (Bad Document)" style="swimlane;whiteSpace=wrap;html=1;fillColor=#1ba1e2;strokeColor=#006EAF;fontColor=#ffffff;" parent="FZtMLzsmXkgukoDw3E-y-56" vertex="1">
          <mxGeometry y="320" width="322.1052631578948" height="100" as="geometry">
            <mxRectangle x="-280" y="200" width="100" height="30" as="alternateBounds" />
          </mxGeometry>
        </mxCell>
        <mxCell id="Id2394FtnwDAoE4dz5dc-16" value="&lt;div&gt;…. Keeley Hawes is known for her roleas Kitty Butler in&lt;/div&gt;&lt;div&gt;Tipping the Velvet, …&lt;/div&gt;" style="text;html=1;align=center;verticalAlign=middle;resizable=0;points=[];autosize=1;strokeColor=none;fillColor=none;" parent="Id2394FtnwDAoE4dz5dc-15" vertex="1">
          <mxGeometry x="0.0036842105263161784" y="45" width="320" height="40" as="geometry" />
        </mxCell>
        <mxCell id="Id2394FtnwDAoE4dz5dc-93" value="&lt;b&gt;&lt;font style=&quot;font-size: 17px;&quot;&gt;AUGMENTED DATASET&lt;/font&gt;&lt;/b&gt;" style="text;html=1;align=center;verticalAlign=middle;whiteSpace=wrap;rounded=0;" parent="FZtMLzsmXkgukoDw3E-y-56" vertex="1">
          <mxGeometry x="63.9473684210526" width="194.21052631578948" height="30" as="geometry" />
        </mxCell>
      </root>
    </mxGraphModel>
  </diagram>
</mxfile>
